<?xml version="1.0" encoding="UTF-8"?>
<!DOCTYPE svg PUBLIC "-//W3C//DTD SVG 1.1//EN" "http://www.w3.org/Graphics/SVG/1.1/DTD/svg11.dtd">
<!-- Creator: CorelDRAW X7 -->
<svg xmlns="http://www.w3.org/2000/svg" xml:space="preserve" width="92.6151mm" height="59.4921mm" version="1.1" style="shape-rendering:geometricPrecision; text-rendering:geometricPrecision; image-rendering:optimizeQuality; fill-rule:evenodd; clip-rule:evenodd" viewBox="0 0 4120 2646" xmlns:xlink="http://www.w3.org/1999/xlink">
 <defs>
  <style type="text/css">
   <![CDATA[
    .fil2 {fill:#054594}
    .fil1 {fill:#E82330}
    .fil0 {fill:#201E1E;fill-rule:nonzero}
   ]]>
  </style>
 </defs>
 <g id="Layer_x0020_1">
  <metadata id="CorelCorpID_0Corel-Layer"/>
  <g id="_1791139236192">
   <path class="fil0" d="M18 2601c6,10 13,19 21,24 8,5 17,8 29,8 13,0 23,-4 32,-13 8,-9 12,-20 12,-32 0,-17 -11,-30 -32,-40 -4,-2 -9,-4 -15,-7 -6,-2 -11,-4 -16,-6 -5,-2 -9,-5 -13,-8 -15,-10 -22,-24 -22,-43 0,-19 7,-34 19,-44 14,-11 30,-16 50,-16 19,0 34,5 45,15 -2,5 -5,14 -8,26l-3 0c-3,-9 -9,-16 -15,-20 -7,-6 -15,-8 -24,-8 -11,0 -21,3 -28,10 -8,7 -12,17 -12,27 0,12 5,22 14,29 3,3 7,6 12,8 5,3 9,5 12,5 3,1 6,3 8,4 3,1 5,1 6,2 3,1 6,2 8,3 2,2 5,3 6,4 11,6 17,10 20,13 9,11 13,22 13,34 0,14 -3,27 -10,37 -7,11 -16,19 -28,25 -12,5 -25,8 -40,8 -8,0 -18,-1 -28,-5 -10,-3 -18,-7 -23,-12 3,-8 5,-17 6,-28l4 0zm257 -86l0 -19 0 -2c2,0 7,1 12,1 6,0 11,-1 14,-1 -2,16 -2,28 -2,37 -1,12 -1,31 -1,56 0,3 0,9 1,17 0,8 0,13 0,17 0,10 0,17 0,21 -6,0 -11,-1 -12,-1 -5,0 -10,1 -12,1l0 -6 0 -19 0 -3c-11,20 -28,30 -50,30 -17,0 -30,-6 -40,-16 -4,-5 -8,-11 -9,-18 -1,-7 -2,-16 -2,-26l1 -45 -1 -31 0 -12 0 -2c4,0 9,1 14,1 6,0 10,-1 13,-1 -1,8 -1,15 -1,23 -2,24 -2,45 -2,59 0,16 2,27 5,33 7,13 17,20 33,20 10,0 19,-3 25,-10 6,-6 11,-14 13,-25 1,-6 1,-16 1,-29l0 -50zm288 71l0 27 1 21 0 8 -3 0 -7 -1c-7,0 -13,1 -17,1 1,-2 1,-5 1,-9l1 -20 1 -33 0 -23c0,-18 -2,-30 -5,-36 -6,-9 -15,-14 -27,-14 -9,0 -17,3 -24,7 -6,4 -11,11 -13,20 -1,3 -2,11 -3,25l0 38c0,11 0,19 1,25l0 13 1 7c-3,0 -8,-1 -13,-1 -7,0 -11,1 -14,1 0,-2 0,-5 0,-6l2 -36 0 -23 0 -26c0,-14 -2,-25 -8,-32 -5,-7 -13,-11 -25,-11 -17,0 -29,8 -34,22 -4,9 -5,22 -5,41l0 17 0 25 1 23 0 6 -3 0c-2,-1 -6,-1 -10,-1 -6,0 -10,1 -13,1 0,-1 0,-4 0,-7l3 -62 0 -37 -2 -35 0 -7 2 0c3,1 6,1 11,1 5,0 9,-1 12,-1 0,4 0,8 0,12 0,4 -1,9 -1,14 12,-19 28,-28 48,-28 10,0 20,2 28,8 8,5 14,13 17,23 12,-20 29,-30 52,-30 14,0 25,3 34,11 8,9 13,19 13,34 0,6 -1,15 -1,28l-1 20zm54 -92c3,0 8,1 15,1 6,0 10,-1 12,-1 -1,22 -2,47 -2,74 0,24 1,48 2,71l0 3c-6,0 -10,-1 -13,-1 -6,0 -11,1 -14,1 1,-22 2,-47 2,-74 0,-32 -1,-56 -2,-72l0 -2zm15 -38c-4,0 -8,-2 -11,-5 -4,-3 -5,-6 -5,-11 0,-4 1,-8 5,-11 3,-4 7,-5 11,-5 4,0 8,1 11,5 3,3 5,7 5,11 0,4 -2,8 -5,11 -3,3 -7,5 -11,5zm191 142l1 30 0 12 0 2c-4,0 -8,-1 -14,-1 -5,0 -10,1 -13,1 0,-3 0,-8 1,-13 0,-6 0,-11 0,-14 1,-7 1,-19 2,-34 0,-2 0,-6 0,-11 0,-5 0,-8 0,-10 0,-16 -1,-26 -4,-31 -7,-14 -18,-21 -32,-21 -16,0 -28,6 -35,19 -4,9 -6,23 -6,43l0 52 1 18 0 2c-6,0 -10,-1 -13,-1 -6,0 -10,1 -13,1 0,-4 1,-10 1,-17 0,-7 1,-14 1,-20 0,-25 1,-43 1,-56 0,-7 -1,-17 -1,-30 -1,-5 -1,-14 -1,-25 4,0 8,1 12,1 6,0 10,-1 13,-1l0 7 -1 10 0 8 0 3c12,-20 29,-30 51,-30 17,0 30,5 39,16 5,6 8,12 9,19 1,6 2,14 2,25l-1 46zm55 -104c4,0 9,1 15,1 6,0 10,-1 13,-1 -2,22 -2,47 -2,74 0,24 0,48 1,71l1 3c-6,0 -11,-1 -14,-1 -6,0 -11,1 -14,1 2,-22 2,-47 2,-74 0,-32 0,-56 -1,-72l-1 -2zm15 -38c-4,0 -8,-2 -11,-5 -3,-3 -5,-6 -5,-11 0,-4 2,-8 5,-11 3,-4 7,-5 11,-5 5,0 8,1 12,5 3,3 4,7 4,11 0,4 -1,8 -4,11 -4,3 -7,5 -12,5zm64 157c4,6 10,12 16,16 7,4 13,6 20,6 8,0 15,-3 22,-8 6,-5 9,-12 9,-19 0,-10 -3,-16 -9,-20 -6,-3 -14,-7 -27,-10 -13,-5 -21,-9 -25,-12 -8,-8 -13,-17 -13,-28 0,-15 5,-26 14,-34 10,-9 22,-12 37,-12 11,0 23,2 33,7 0,0 1,0 1,0 1,0 1,1 1,1 -3,7 -5,14 -7,22l-3 0c-2,-6 -5,-10 -10,-14 -5,-4 -10,-6 -16,-6 -9,0 -16,2 -21,7 -5,4 -8,10 -8,18 0,9 3,15 8,19 5,4 12,7 22,10 15,4 25,7 29,10 10,8 15,19 15,30 0,17 -8,31 -25,42 -8,5 -18,8 -33,8 -15,0 -27,-4 -39,-10 4,-13 6,-21 7,-23l2 0zm152 -161c0,3 0,6 0,8l-2 37 33 0 0 13 -33 -1c-1,1 -1,4 -1,7l-1 68 0 13c0,11 2,20 5,27 3,8 10,11 20,11 2,0 4,-1 7,-1 3,-1 5,-1 7,-2l0 8c-8,3 -17,5 -26,5 -2,0 -3,0 -5,-1 -1,0 -3,0 -4,0 -2,-1 -3,-1 -5,-1 -5,-1 -9,-4 -13,-8 -4,-3 -7,-8 -8,-13 -2,-7 -2,-15 -2,-25l2 -55 0 -26 0 -7 -21 1 0 -5 0 -9 21 1c0,-4 0,-9 -1,-17 0,-8 0,-13 0,-17l27 -11zm61 149l-1 -105 0 -2 7 1c8,0 14,-1 18,-1l-2 22 0 7 1 2 2 -4c6,-9 12,-16 19,-21 7,-6 16,-8 27,-8 1,1 2,1 3,1l-1 8 0 7 -1 7 0 3 -2 1c0,0 -1,0 -1,-1 -1,0 -2,-1 -2,-1 -3,-1 -7,-2 -12,-2 -9,0 -15,2 -20,7 -4,5 -7,9 -8,13 -3,7 -4,20 -4,36l0 38 1 31 0 2c-3,0 -7,-1 -13,-1 -3,0 -7,1 -12,1l0 -8 1 -33zm168 -110c23,0 41,8 55,24 12,13 18,31 18,53 0,15 -4,29 -11,42 -14,24 -36,36 -67,36 -11,0 -22,-2 -32,-7 -9,-4 -17,-10 -24,-18 -7,-8 -12,-15 -14,-24 -2,-8 -4,-18 -4,-30 0,-23 7,-41 23,-55 15,-14 33,-21 56,-21zm32 126c7,-9 10,-21 12,-34 1,-4 1,-9 1,-17 0,-17 -3,-32 -10,-45 -7,-13 -19,-20 -35,-20 -18,0 -31,7 -39,21 -8,14 -12,30 -12,50 0,17 4,32 12,45 8,12 20,18 36,18 14,0 25,-6 35,-18zm233 -192l42 83c16,29 32,57 48,85 6,-9 10,-17 14,-24 3,-7 7,-13 11,-20l41 -76c2,-3 6,-11 12,-22 6,-10 11,-19 15,-26l4 0 15 136c1,13 3,28 5,44 3,16 4,28 5,37 -6,0 -10,-1 -13,-1 -7,0 -13,1 -16,1l-10 -114c-2,-15 -4,-31 -6,-46l-44 80 -17 33c-2,5 -5,11 -9,20 -4,8 -8,17 -12,25l-3 0 -18 -35c-4,-11 -10,-23 -17,-36 -7,-13 -14,-27 -21,-41 -8,-14 -16,-30 -25,-46l-13 122 -2 31 0 7c-1,0 -3,0 -6,0 -2,0 -5,0 -6,0 -5,0 -7,0 -10,0l0 -3 11 -64 15 -114c0,-4 1,-9 2,-15 1,-6 1,-13 2,-21l6 0zm257 101l0 -17c16,-12 34,-18 50,-18 17,0 30,5 39,15 5,5 9,10 10,16 1,5 2,13 2,22l-1 38c0,2 0,6 0,11 -1,5 -1,9 -1,12 0,9 1,16 3,21 1,4 4,6 9,6 3,0 6,0 7,0l0 6c-1,0 -1,0 -2,1 -1,1 -3,1 -4,1 -1,1 -2,1 -3,1 -4,1 -8,1 -10,1 -14,0 -21,-7 -22,-19l-3 3c-13,13 -29,20 -46,20 -12,0 -22,-4 -30,-11 -8,-7 -12,-16 -12,-27 0,-7 1,-14 4,-21 4,-6 8,-11 14,-14 8,-4 21,-8 40,-11 14,-2 23,-4 27,-7 2,-1 4,-2 5,-3 1,-2 1,-6 1,-11 0,-11 -3,-20 -10,-27 -6,-6 -15,-10 -27,-10 -15,0 -26,6 -34,18 -2,2 -3,4 -3,4l-3 0zm77 38c0,0 -1,1 -3,1l-9 2c-13,3 -22,5 -28,6 -6,2 -12,5 -17,10 -6,5 -8,11 -8,20 0,20 10,29 30,29 9,0 17,-3 25,-11 4,-4 6,-6 6,-7 1,-1 2,-2 3,-3l1 -47zm77 37l-1 -105 0 -2 7 1c8,0 14,-1 18,-1l-2 22 0 7 1 2 2 -4c6,-9 12,-16 19,-21 7,-6 16,-8 27,-8 1,1 2,1 3,1l-1 8 0 7 -1 7 0 3 -2 1c0,0 -1,0 -2,-1 -1,0 -1,-1 -1,-1 -3,-1 -7,-2 -12,-2 -9,0 -15,2 -20,7 -4,5 -7,9 -8,13 -3,7 -4,20 -4,36l0 38 1 31 0 2c-3,0 -7,-1 -13,-1 -3,0 -7,1 -12,1l0 -8 1 -33zm136 -107c0,11 -1,23 -1,35 -1,12 -1,25 -1,39 0,12 0,24 1,36 0,12 1,25 1,38 -3,0 -5,0 -8,-1 -2,0 -4,0 -6,0 -3,0 -6,0 -8,0 -2,1 -4,1 -5,1 0,-11 1,-23 1,-35 1,-12 1,-25 1,-39 0,-16 0,-30 -1,-42 0,-12 0,-23 -1,-32 2,0 4,0 6,0 2,1 5,1 9,1 5,0 9,-1 12,-1zm29 -65c0,2 0,3 0,4 1,0 1,1 1,2 0,1 0,1 -1,2 0,0 0,1 -1,2 -1,1 -1,1 -3,2 -1,1 -2,3 -4,4l-49 31 -11 0 40 -39c1,-2 2,-3 3,-5 2,-1 3,-3 5,-4 1,-1 2,-3 4,-4 1,0 2,-1 4,-1 7,0 11,2 12,6zm53 23c0,3 0,6 -1,8l-2 37 34 0 0 13 -34 -1c0,1 -1,4 -1,7l0 68 0 13c0,11 1,20 5,27 3,8 10,11 19,11 2,0 5,-1 8,-1 2,-1 5,-1 7,-2l0 8c-9,3 -18,5 -27,5 -1,0 -3,0 -4,-1 -1,0 -3,0 -5,0 -1,-1 -3,-1 -5,-1 -5,-1 -8,-4 -12,-8 -4,-3 -7,-8 -9,-13 -1,-7 -2,-15 -2,-25l2 -55 0 -26 0 -7 -20 1 0 -5 0 -9 20 1c0,-4 0,-9 0,-17 -1,-8 -1,-13 -1,-17l28 -11zm65 42c3,0 8,1 15,1 6,0 10,-1 12,-1 -1,22 -2,47 -2,74 0,24 1,48 2,71l0 3c-6,0 -10,-1 -13,-1 -6,0 -11,1 -14,1 1,-22 2,-47 2,-74 0,-32 -1,-56 -2,-72l0 -2zm15 -38c-4,0 -8,-2 -11,-5 -4,-3 -5,-6 -5,-11 0,-4 1,-8 5,-11 3,-4 7,-5 11,-5 4,0 8,1 11,5 3,3 5,7 5,11 0,4 -2,8 -5,11 -3,3 -7,5 -11,5zm279 130l0 27 1 21 0 8 -3 0 -7 -1c-7,0 -13,1 -17,1 1,-2 1,-5 1,-9l1 -20 1 -33 0 -23c0,-18 -2,-30 -5,-36 -6,-9 -15,-14 -27,-14 -9,0 -17,3 -24,7 -6,4 -11,11 -13,20 -1,3 -2,11 -3,25l0 38c0,11 0,19 1,25l0 13 1 7c-3,0 -8,-1 -13,-1 -7,0 -11,1 -14,1 0,-2 0,-5 0,-6l2 -36 0 -23 0 -26c0,-14 -2,-25 -8,-32 -5,-7 -13,-11 -25,-11 -17,0 -29,8 -34,22 -4,9 -5,22 -5,41l0 17 0 25 1 23 0 6 -3 0c-2,-1 -6,-1 -10,-1 -6,0 -10,1 -13,1 0,-1 0,-4 0,-7l3 -62 0 -37 -2 -35 0 -7 2 0c3,1 6,1 11,1 5,0 9,-1 12,-1 0,4 0,8 0,12 0,4 -1,9 -1,14 12,-19 28,-28 48,-28 10,0 20,2 28,8 8,5 14,13 17,23 12,-20 29,-30 52,-30 14,0 25,3 34,11 8,9 12,19 12,34 0,6 0,15 0,28l-1 20zm114 -95c22,0 40,8 54,24 12,13 19,31 19,53 0,15 -4,29 -12,42 -14,24 -36,36 -67,36 -11,0 -21,-2 -32,-7 -8,-4 -17,-10 -24,-18 -7,-8 -11,-15 -14,-24 -2,-8 -4,-18 -4,-30 0,-23 8,-41 23,-55 15,-14 34,-21 57,-21zm31 126c7,-9 11,-21 13,-34 0,-4 1,-9 1,-17 0,-17 -4,-32 -11,-45 -7,-13 -19,-20 -34,-20 -19,0 -32,7 -40,21 -8,14 -12,30 -12,50 0,17 4,32 12,45 8,12 20,18 37,18 13,0 25,-6 34,-18zm215 -49l0 14 1 54 0 7c-6,-1 -11,-1 -14,-1 -2,0 -4,0 -8,0 -3,0 -6,0 -8,0 1,-1 1,-4 1,-8l3 -60 -2 -110 -1 -36c4,1 11,1 19,1l38 -1c14,0 26,1 36,2 10,1 18,5 26,10 9,5 14,13 17,24 1,5 2,10 2,16 0,13 -3,25 -10,34 -5,9 -13,15 -23,20 -9,4 -20,8 -34,10 -5,1 -11,1 -19,1 -3,0 -7,0 -12,0 -5,0 -9,0 -12,0l0 23zm0 -101l0 66c3,0 8,1 15,1 4,0 10,-1 16,-1 18,-2 30,-8 38,-17 4,-3 7,-8 8,-15 3,-7 4,-13 4,-19 0,-12 -4,-22 -10,-30 -5,-6 -14,-9 -25,-10 -6,-1 -12,-2 -18,-2 -7,0 -16,1 -27,1l0 7 -1 19zm208 24c22,0 40,8 54,24 12,13 19,31 19,53 0,15 -4,29 -12,42 -14,24 -36,36 -67,36 -10,0 -21,-2 -32,-7 -8,-4 -17,-10 -24,-18 -7,-8 -11,-15 -14,-24 -2,-8 -4,-18 -4,-30 0,-23 8,-41 23,-55 15,-14 34,-21 57,-21zm31 126c7,-9 11,-21 13,-34 0,-4 1,-9 1,-17 0,-17 -4,-32 -11,-45 -7,-13 -19,-20 -34,-20 -18,0 -32,7 -39,21 -9,14 -13,30 -13,50 0,17 4,32 12,45 8,12 20,18 37,18 13,0 25,-6 34,-18zm79 -16l-1 -105 0 -2 7 1c8,0 14,-1 18,-1l-2 22 0 7 1 2 2 -4c6,-9 12,-16 19,-21 7,-6 16,-8 27,-8 1,1 2,1 3,1l-1 8 0 7 -1 7 0 3 -2 1c0,0 -1,0 -2,-1 -1,0 -1,-1 -2,-1 -3,-1 -6,-2 -11,-2 -9,0 -15,2 -20,7 -4,5 -7,9 -8,13 -3,7 -4,20 -4,36l0 38 1 31 0 2c-3,0 -8,-1 -13,-1 -3,0 -7,1 -12,1l0 -8 1 -33zm131 -149c0,3 0,6 -1,8l-2 37 33 0 0 13 -33 -1c0,1 -1,4 -1,7l0 68 0 13c0,11 1,20 4,27 3,8 10,11 20,11 2,0 4,-1 7,-1 3,-1 5,-1 7,-2l0 8c-8,3 -17,5 -26,5 -2,0 -3,0 -5,-1 -1,0 -3,0 -4,0 -1,-1 -3,-1 -5,-1 -5,-1 -9,-4 -13,-8 -4,-3 -6,-8 -8,-13 -1,-7 -2,-15 -2,-25l2 -55 0 -26 0 -7 -20 1 0 -5 0 -9 20 1c0,-4 0,-9 0,-17 -1,-8 -1,-13 -1,-17l28 -11zm158 63l0 -19 0 -2c2,0 6,1 12,1 6,0 11,-1 14,-1 -2,16 -2,28 -2,37 -1,12 -1,31 -1,56 0,3 0,9 1,17 0,8 0,13 0,17 0,10 0,17 0,21 -6,0 -11,-1 -12,-1 -6,0 -10,1 -12,1l0 -6 0 -19 0 -3c-11,20 -28,30 -50,30 -17,0 -30,-6 -40,-16 -4,-5 -8,-11 -9,-18 -1,-7 -2,-16 -2,-26l1 -45 -1 -31 0 -12 0 -2c4,0 9,1 14,1 6,0 10,-1 13,-1 -1,8 -1,15 -1,23 -2,24 -2,45 -2,59 0,16 2,27 5,33 7,13 17,20 33,20 10,0 19,-3 24,-10 7,-6 12,-14 14,-25 1,-6 1,-16 1,-29l0 -50zm79 11l0 -17c17,-12 34,-18 50,-18 17,0 30,5 39,15 5,5 9,10 10,16 1,5 2,13 2,22l-1 38c0,2 0,6 0,11 -1,5 -1,9 -1,12 0,9 1,16 3,21 1,4 4,6 9,6 3,0 6,0 7,0l0 6c-1,0 -1,0 -2,1 -1,1 -3,1 -4,1 -1,1 -2,1 -3,1 -4,1 -8,1 -10,1 -13,0 -21,-7 -22,-19l-3 3c-13,13 -29,20 -46,20 -12,0 -22,-4 -30,-11 -8,-7 -12,-16 -12,-27 0,-7 1,-14 5,-21 3,-6 7,-11 13,-14 8,-4 21,-8 40,-11 14,-2 23,-4 27,-7 2,-1 4,-2 5,-3 1,-2 1,-6 1,-11 0,-11 -3,-20 -10,-27 -6,-6 -15,-10 -26,-10 -16,0 -27,6 -35,18 -2,2 -3,4 -3,4l-3 0zm77 38c0,0 -1,1 -3,1l-9 2c-13,3 -22,5 -28,6 -6,2 -12,5 -17,10 -5,5 -8,11 -8,20 0,20 10,29 30,29 9,0 18,-3 25,-11 4,-4 6,-6 6,-7 1,-1 2,-2 3,-3l1 -47zm77 37l-1 -105 0 -2 7 1c8,0 14,-1 18,-1l-1 22 0 7 0 2 3 -4c5,-9 11,-16 18,-21 7,-6 16,-8 27,-8 2,1 2,1 3,1l-1 8 0 7 0 7 0 3 -3 1c0,0 0,0 -1,-1 -1,0 -2,-1 -2,-1 -3,-1 -7,-2 -12,-2 -8,0 -15,2 -20,7 -4,5 -7,9 -8,13 -2,7 -4,20 -4,36l0 38 1 31 0 2c-3,0 -7,-1 -13,-1 -3,0 -7,1 -12,1l0 -8 1 -33zm109 -107c3,0 8,1 15,1 6,0 10,-1 12,-1 -1,22 -2,47 -2,74 0,24 1,48 2,71l0 3c-6,0 -10,-1 -14,-1 -5,0 -10,1 -13,1 1,-22 2,-47 2,-74 0,-32 -1,-56 -2,-72l0 -2zm15 -38c-4,0 -8,-2 -11,-5 -4,-3 -5,-6 -5,-11 0,-4 1,-8 5,-11 3,-4 7,-5 11,-5 4,0 8,1 11,5 3,3 5,7 5,11 0,4 -2,8 -5,11 -3,3 -7,5 -11,5zm132 35c22,0 40,8 54,24 12,13 19,31 19,53 0,15 -4,29 -12,42 -14,24 -36,36 -67,36 -11,0 -21,-2 -32,-7 -8,-4 -17,-10 -24,-18 -7,-8 -11,-15 -14,-24 -2,-8 -4,-18 -4,-30 0,-23 8,-41 23,-55 15,-14 34,-21 57,-21zm31 126c7,-9 11,-21 13,-34 0,-4 1,-9 1,-17 0,-17 -4,-32 -11,-45 -7,-13 -19,-20 -34,-20 -19,0 -32,7 -40,21 -8,14 -12,30 -12,50 0,17 4,32 12,45 8,12 20,18 37,18 13,0 25,-6 34,-18z"/>
   <g>
    <path class="fil1" d="M3144 1919l0 326c0,6 -1,10 -4,13 -2,3 -7,6 -14,7l0 10 121 0 0 -10c-7,-1 -11,-4 -14,-7 -3,-3 -4,-7 -4,-13l0 -127 138 0c36,0 64,-4 84,-11 20,-7 35,-19 48,-35 14,-20 20,-43 20,-69 0,-18 -3,-35 -11,-51 -7,-16 -17,-29 -30,-39 -13,-9 -27,-15 -44,-19 -16,-4 -38,-5 -67,-5l-241 0 0 9c7,2 12,4 14,7 3,3 4,7 4,14zm214 135l-129 0 0 -102 129 0c25,0 43,3 54,8 6,4 12,10 16,18 4,7 6,16 6,25 0,9 -2,18 -6,26 -4,8 -10,14 -16,17 -11,5 -29,8 -54,8z"/>
    <path class="fil1" d="M3676 2081c0,27 4,52 14,76 11,27 27,51 48,70 39,36 93,55 159,55 89,0 154,-32 192,-94 21,-33 31,-67 31,-104 0,-61 -21,-110 -63,-148 -39,-36 -93,-55 -160,-54 -90,0 -154,32 -192,93 -20,32 -29,68 -29,106zm129 102c-29,-26 -44,-59 -44,-102 0,-41 15,-75 44,-101 25,-22 55,-33 92,-33 37,0 68,11 93,33 29,25 44,60 44,103 0,18 -4,35 -11,52 -7,19 -18,36 -33,48 -24,22 -55,33 -92,33 -38,0 -68,-11 -93,-33z"/>
    <path class="fil1" d="M2807 2114c70,-11 105,-47 105,-110 0,-19 -4,-36 -11,-52 -7,-17 -18,-30 -33,-40 -13,-9 -28,-15 -45,-18 -17,-4 -41,-5 -70,-5l-242 0 0 9c7,2 12,4 14,7 3,3 4,7 4,14l0 326c0,6 -1,10 -4,13 -2,3 -7,6 -14,7l0 10 121 0 0 -10c-7,-1 -11,-4 -14,-7 -3,-3 -4,-7 -4,-13l0 -128 102 0 79 114c9,12 13,21 13,24 0,5 -5,9 -14,10l0 10 139 0 0 -10c-8,0 -16,-3 -22,-8 -6,-6 -16,-18 -29,-37l-75 -106zm21 -111c0,20 -7,34 -22,42 -6,3 -13,6 -22,7 -7,1 -21,2 -40,2l-130 0 0 -102 130 0c20,0 33,1 41,2 8,1 15,3 21,7 15,7 22,22 22,42z"/>
    <path class="fil1" d="M2298 2230l-147 -297c-3,-7 -5,-13 -5,-18 0,-8 6,-14 17,-17l0 -9 -137 0 0 9c11,3 16,10 16,18 0,6 -2,14 -7,23l-141 296c-5,11 -10,19 -14,22 -4,4 -10,7 -17,8l0 10 128 0 0 -10c-13,-3 -19,-9 -19,-17 0,-5 1,-10 5,-18l26 -54 174 0 27 54c4,8 6,14 6,18 0,9 -6,15 -19,17l0 10 142 0 0 -10c-8,-1 -13,-4 -19,-9 -4,-4 -9,-13 -16,-26zm-207 -244l62 137 -125 0 63 -137z"/>
    <path class="fil1" d="M1659 2245l0 -327c0,-6 1,-10 4,-13 2,-3 7,-5 14,-7l0 -9 -146 0 0 9c9,1 14,5 14,13 0,4 -3,10 -7,19l-107 195 -105 -199c-2,-4 -4,-9 -4,-13 0,-8 5,-13 14,-15l0 -9 -149 0 0 9c7,2 12,4 14,7 3,3 4,7 4,13l0 327c0,5 -1,10 -4,13 -2,3 -7,6 -14,7l0 10 113 0 0 -10c-7,-1 -11,-4 -14,-7 -2,-3 -4,-8 -4,-13l0 -237 143 267 149 -267 0 237c0,5 -1,10 -4,13 -3,3 -7,6 -14,7l0 10 121 0 0 -10c-7,-1 -12,-4 -14,-7 -3,-3 -4,-8 -4,-13z"/>
    <path class="fil1" d="M681 2187c-7,-7 -11,-16 -14,-26 -2,-11 -4,-28 -4,-50l0 -192c0,-7 2,-11 4,-14 3,-3 8,-5 14,-7l0 -9 -120 0 0 9c7,2 12,4 14,7 3,3 4,7 4,14l0 216c0,27 3,51 11,70 7,20 20,36 39,47 33,20 80,30 142,30 84,0 140,-19 167,-55 15,-21 23,-51 23,-92l0 -216c0,-7 1,-11 4,-14 2,-3 7,-5 14,-7l0 -9 -114 0 0 9c7,2 12,4 14,7 3,3 4,7 4,14l0 192c0,22 -1,39 -3,50 -2,10 -7,19 -14,26 -18,19 -49,29 -93,29 -43,0 -74,-10 -92,-29z"/>
    <path class="fil1" d="M370 2156c0,-17 -4,-34 -11,-49 -8,-15 -18,-27 -31,-36 -12,-9 -26,-16 -43,-20 -16,-6 -38,-10 -64,-12l-44 -5c-30,-3 -50,-5 -59,-8 -17,-5 -26,-15 -26,-30 0,-9 4,-17 10,-25 7,-7 16,-13 28,-16 15,-6 33,-8 52,-8 46,0 85,12 118,35 11,7 17,14 17,21 0,1 0,3 0,4l8 5 45 -91 -7 -4c-6,4 -10,6 -14,6 -3,0 -9,-2 -20,-6 -32,-14 -59,-23 -80,-28 -21,-5 -44,-7 -69,-7 -59,0 -103,14 -133,42 -22,21 -33,48 -33,81 0,20 5,37 13,53 10,16 23,29 41,38 12,6 24,10 36,13 12,2 33,5 62,9l44 4c29,3 48,7 57,11 14,5 21,14 21,27 0,9 -3,17 -8,24 -6,9 -14,15 -24,20 -17,8 -39,12 -64,12 -23,0 -47,-4 -73,-12 -26,-7 -44,-17 -57,-28 -8,-7 -12,-15 -12,-23l0 -4 -8 -4 -42 94 8 5c5,-4 9,-6 12,-6 2,0 8,2 19,7 50,25 100,37 151,37 28,0 55,-4 80,-11 33,-9 58,-23 74,-43 17,-20 26,-45 26,-72z"/>
   </g>
   <path class="fil2" d="M14 1644l0 25c1368,0 2737,0 4106,0l0 -25c-512,-42 -1024,-68 -1537,-79l9 0c261,-376 585,-706 956,-973l48 -206c-420,321 -772,721 -1036,1178l18 1c-38,-1 -77,-2 -116,-2l22 0c223,-428 523,-812 883,-1134 62,-55 126,-108 191,-159 -676,29 -1331,233 -1906,596 -597,377 -858,674 -1638,770l0 8zm1341 -733c272,-295 587,-547 933,-748 95,56 188,115 278,177 2,0 3,-1 4,-1 -87,-118 -181,-231 -281,-339 -360,249 -677,557 -937,909l3 2zm1101 -532c-55,-33 -111,-64 -168,-94 -408,213 -775,496 -1087,834l3 3c370,-324 795,-575 1252,-743zm-1 1184c-690,-11 -1381,7 -2069,53 -17,1 -73,5 -90,6l0 0c729,-168 1052,-548 1655,-829 387,-181 788,-295 1214,-345 -297,329 -537,707 -710,1115z"/>
  </g>
 </g>
</svg>