<svg xmlns="http://www.w3.org/2000/svg" xmlns:xlink="http://www.w3.org/1999/xlink" width="381" height="264.068" viewBox="0 0 381 264.068">
  <defs>
    <linearGradient id="linear-gradient" x1="0.5" y1="1" x2="0.5" gradientUnits="objectBoundingBox">
      <stop offset="0" stop-color="gray" stop-opacity="0.251"/>
      <stop offset="0.535" stop-color="gray" stop-opacity="0.122"/>
      <stop offset="1" stop-color="gray" stop-opacity="0.102"/>
    </linearGradient>
  </defs>
  <g id="Grupo_57" data-name="Grupo 57" transform="translate(0 0)">
    <rect id="Rectángulo_31" data-name="Rectángulo 31" width="4.495" height="60.069" transform="translate(70.362 66.652)" fill="#064594" stroke="#064594" stroke-miterlimit="10" stroke-width="1"/>
    <rect id="Rectángulo_32" data-name="Rectángulo 32" width="44.651" height="27.051" transform="translate(166.486 108.618)" fill="#f55f44"/>
    <rect id="Rectángulo_33" data-name="Rectángulo 33" width="44.651" height="27.051" transform="translate(211.136 108.618)" fill="#4d8af0"/>
    <rect id="Rectángulo_34" data-name="Rectángulo 34" width="44.651" height="27.051" transform="translate(255.787 108.618)" fill="#3ad29f"/>
    <rect id="Rectángulo_35" data-name="Rectángulo 35" width="44.651" height="27.051" transform="translate(166.16 135.669)" fill="#4d8af0"/>
    <rect id="Rectángulo_36" data-name="Rectángulo 36" width="44.651" height="27.051" transform="translate(121.835 135.669)" fill="#f55f44"/>
    <rect id="Rectángulo_37" data-name="Rectángulo 37" width="44.651" height="27.051" transform="translate(211.136 135.669)" fill="#3ad29f"/>
    <rect id="Rectángulo_38" data-name="Rectángulo 38" width="44.651" height="27.051" transform="translate(255.787 135.669)" fill="#fdd835"/>
    <g id="Grupo_57-2" data-name="Grupo 57" transform="translate(174.471 108.455)" opacity="0.1">
      <rect id="Rectángulo_39" data-name="Rectángulo 39" width="5.866" height="27.051"/>
      <rect id="Rectángulo_40" data-name="Rectángulo 40" width="5.866" height="27.051" transform="translate(11.407)"/>
      <rect id="Rectángulo_41" data-name="Rectángulo 41" width="5.866" height="27.051" transform="translate(22.814)"/>
    </g>
    <g id="Grupo_58" data-name="Grupo 58" transform="translate(219.121 108.455)" opacity="0.1">
      <rect id="Rectángulo_42" data-name="Rectángulo 42" width="5.866" height="27.051"/>
      <rect id="Rectángulo_43" data-name="Rectángulo 43" width="5.866" height="27.051" transform="translate(11.407)"/>
      <rect id="Rectángulo_44" data-name="Rectángulo 44" width="5.866" height="27.051" transform="translate(22.814)"/>
    </g>
    <g id="Grupo_59" data-name="Grupo 59" transform="translate(263.771 108.455)" opacity="0.1">
      <rect id="Rectángulo_45" data-name="Rectángulo 45" width="5.866" height="27.051"/>
      <rect id="Rectángulo_46" data-name="Rectángulo 46" width="5.866" height="27.051" transform="translate(11.407)"/>
      <rect id="Rectángulo_47" data-name="Rectángulo 47" width="5.866" height="27.051" transform="translate(22.814)"/>
    </g>
    <g id="Grupo_60" data-name="Grupo 60" transform="translate(174.471 135.506)" opacity="0.1">
      <rect id="Rectángulo_48" data-name="Rectángulo 48" width="5.866" height="27.051"/>
      <rect id="Rectángulo_49" data-name="Rectángulo 49" width="5.866" height="27.051" transform="translate(11.407)"/>
      <rect id="Rectángulo_50" data-name="Rectángulo 50" width="5.866" height="27.051" transform="translate(22.814)"/>
    </g>
    <g id="Grupo_61" data-name="Grupo 61" transform="translate(129.82 135.506)" opacity="0.1">
      <rect id="Rectángulo_51" data-name="Rectángulo 51" width="5.866" height="27.051"/>
      <rect id="Rectángulo_52" data-name="Rectángulo 52" width="5.866" height="27.051" transform="translate(11.407)"/>
      <rect id="Rectángulo_53" data-name="Rectángulo 53" width="5.866" height="27.051" transform="translate(22.814)"/>
    </g>
    <g id="Grupo_62" data-name="Grupo 62" transform="translate(219.121 135.506)" opacity="0.1">
      <rect id="Rectángulo_54" data-name="Rectángulo 54" width="5.866" height="27.051"/>
      <rect id="Rectángulo_55" data-name="Rectángulo 55" width="5.866" height="27.051" transform="translate(11.407)"/>
      <rect id="Rectángulo_56" data-name="Rectángulo 56" width="5.866" height="27.051" transform="translate(22.814)"/>
    </g>
    <g id="Grupo_63" data-name="Grupo 63" transform="translate(263.771 135.506)" opacity="0.1">
      <rect id="Rectángulo_57" data-name="Rectángulo 57" width="5.866" height="27.051"/>
      <rect id="Rectángulo_58" data-name="Rectángulo 58" width="5.866" height="27.051" transform="translate(11.407)"/>
      <rect id="Rectángulo_59" data-name="Rectángulo 59" width="5.866" height="27.051" transform="translate(22.814)"/>
    </g>
    <rect id="Rectángulo_60" data-name="Rectángulo 60" width="345.704" height="10.624" transform="translate(8.862 194.35)" fill="#064594" stroke="#064594" stroke-miterlimit="10" stroke-width="1"/>
    <path id="Trazado_43" data-name="Trazado 43" d="M511.178,434.224h-203.5a4.918,4.918,0,0,1-4.9-4.9V399.358L223.5,390.5v91.125H516.082V429.32A4.918,4.918,0,0,1,511.178,434.224Z" transform="translate(-188.077 -281.963)" fill="#064594" stroke="#064594" stroke-miterlimit="10" stroke-width="1"/>
    <rect id="Rectángulo_61" data-name="Rectángulo 61" width="29.83" height="17.163" transform="translate(35.423 118.344)" fill="#fff"/>
    <circle id="Elipse_5" data-name="Elipse 5" cx="8.581" cy="8.581" r="8.581" transform="translate(64.028 57.867)" fill="#064594" stroke="#064594" stroke-miterlimit="10" stroke-width="1"/>
    <path id="Trazado_44" data-name="Trazado 44" d="M232.429,602.4c3.039-8.2,12.594-12.476,21.335-12.134s16.884,4.292,24.72,8.182,15.95,7.878,24.688,8.306c19.418.952,35.759-15.579,55.11-17.456,23-2.23,43.418,16.5,66.516,17.274a28.132,28.132,0,0,0,11.946-1.9c3.256-1.384,6.093-3.576,9.169-5.325,15.52-8.827,34.931-5.494,52.1-.6s34.994,11.164,52.448,7.4" transform="translate(-193.357 -399.417)" fill="#4d8af0"/>
    <path id="Trazado_45" data-name="Trazado 45" d="M136.812,641.122c3.039-8.2,12.594-12.476,21.335-12.134s16.884,4.292,24.72,8.182,15.95,7.878,24.688,8.306c19.418.952,35.759-15.579,55.11-17.456,23-2.23,43.418,16.5,66.516,17.274a28.132,28.132,0,0,0,11.946-1.9c3.256-1.384,6.093-3.576,9.169-5.325,15.52-8.827,34.931-5.494,52.1-.6s34.995,11.164,52.448,7.4" transform="translate(-136.812 -422.315)" fill="#4d8af0"/>
    <path id="Trazado_46" data-name="Trazado 46" d="M238.751,690.906c3.039-8.2,12.594-12.476,21.335-12.134s16.884,4.292,24.72,8.182,15.95,7.878,24.688,8.306c19.418.952,35.759-15.58,55.11-17.456,23-2.23,43.418,16.5,66.516,17.274a28.132,28.132,0,0,0,11.946-1.9c3.256-1.384,6.093-3.576,9.169-5.325,15.52-8.827,34.931-5.494,52.1-.6s34.994,11.164,52.448,7.4" transform="translate(-197.096 -451.756)" fill="#4d8af0"/>
    <path id="Trazado_47" data-name="Trazado 47" d="M290.906,739.9c3.039-8.2,12.594-12.476,21.335-12.134s16.884,4.291,24.72,8.182,15.95,7.878,24.688,8.306c19.418.952,35.759-15.58,55.11-17.456,23-2.23,43.418,16.5,66.516,17.274a28.132,28.132,0,0,0,11.946-1.9c3.256-1.384,6.093-3.576,9.169-5.325,15.52-8.827,34.931-5.494,52.1-.6s34.994,11.164,52.448,7.4" transform="translate(-227.938 -480.729)" fill="#4d8af0"/>
    <g id="Grupo_64" data-name="Grupo 64" transform="translate(95.374 27.216)" opacity="0.5">
      <path id="Trazado_48" data-name="Trazado 48" d="M382.286,210.828l-2.817-.5a18.2,18.2,0,0,1,.34-2.072c.478-6.04-3.71-12.4-9.6-14l.754-2.767a16.433,16.433,0,0,1,11.072,11.179,19.826,19.826,0,0,1,12.933-9.377l.567,2.812a17.268,17.268,0,0,0-12.886,12.61A14.493,14.493,0,0,1,382.286,210.828Z" transform="translate(-370.21 -191.492)" fill="url(#linear-gradient)"/>
    </g>
    <path id="Trazado_49" data-name="Trazado 49" d="M385.031,211.456l-2.408-.426a15.557,15.557,0,0,1,.291-1.771c.409-5.163-3.171-10.6-8.2-11.966l.644-2.366a14.047,14.047,0,0,1,9.465,9.556,16.947,16.947,0,0,1,11.055-8.016l.485,2.4a14.76,14.76,0,0,0-11.015,10.779A12.389,12.389,0,0,1,385.031,211.456Z" transform="translate(-277.497 -166.308)" fill="#706a6a"/>
    <g id="Grupo_65" data-name="Grupo 65" transform="translate(159.938 8.172)" opacity="0.5">
      <path id="Trazado_50" data-name="Trazado 50" d="M536,157.363l-1.817-.322a11.746,11.746,0,0,1,.219-1.336,8.921,8.921,0,0,0-6.191-9.03l.486-1.785a10.6,10.6,0,0,1,7.142,7.211,12.789,12.789,0,0,1,8.342-6.049l.366,1.814A11.138,11.138,0,0,0,536.234,156,9.359,9.359,0,0,1,536,157.363Z" transform="translate(-528.21 -144.89)" fill="url(#linear-gradient)"/>
    </g>
    <g id="Grupo_66" data-name="Grupo 66" transform="translate(270.678 0)" opacity="0.5">
      <path id="Trazado_51" data-name="Trazado 51" d="M807,137.363l-1.817-.322a11.747,11.747,0,0,1,.219-1.336,8.921,8.921,0,0,0-6.191-9.03l.486-1.785a10.6,10.6,0,0,1,7.142,7.211,12.788,12.788,0,0,1,8.342-6.049l.366,1.814A11.138,11.138,0,0,0,807.234,136,9.342,9.342,0,0,1,807,137.363Z" transform="translate(-799.21 -124.89)" fill="url(#linear-gradient)"/>
    </g>
    <path id="Trazado_52" data-name="Trazado 52" d="M540.271,158.34l-1.181-.209a7.622,7.622,0,0,1,.143-.868,5.8,5.8,0,0,0-4.023-5.868l.316-1.16a6.888,6.888,0,0,1,4.641,4.686,8.31,8.31,0,0,1,5.421-3.931l.238,1.179a7.238,7.238,0,0,0-5.4,5.285A6.084,6.084,0,0,1,540.271,158.34Z" transform="translate(-372.411 -139.878)" fill="#706a6a"/>
    <path id="Trazado_53" data-name="Trazado 53" d="M811.271,138.34l-1.181-.209a7.634,7.634,0,0,1,.143-.868,5.8,5.8,0,0,0-4.023-5.868l.316-1.16a6.888,6.888,0,0,1,4.641,4.686,8.31,8.31,0,0,1,5.421-3.931l.238,1.179a7.238,7.238,0,0,0-5.4,5.285A6.075,6.075,0,0,1,811.271,138.34Z" transform="translate(-532.671 -128.051)" fill="#706a6a"/>
    <g id="Grupo_67" data-name="Grupo 67" transform="translate(29.166 3.957)" opacity="0.5">
      <circle id="Elipse_6" data-name="Elipse 6" cx="27.378" cy="27.378" r="27.378" fill="url(#linear-gradient)"/>
    </g>
    <circle id="Elipse_7" data-name="Elipse 7" cx="25.335" cy="25.335" r="25.335" transform="translate(31.209 6)" fill="#fdd835"/>
  </g>
</svg>
